<?xml version="1.0" standalone="no"?>
<!DOCTYPE svg PUBLIC "-//W3C//DTD SVG 20010904//EN"
 "http://www.w3.org/TR/2001/REC-SVG-20010904/DTD/svg10.dtd">
<svg version="1.0" xmlns="http://www.w3.org/2000/svg"
 width="618.000000pt" height="618.000000pt" viewBox="0 0 618.000000 618.000000"
 preserveAspectRatio="xMidYMid meet">
<metadata>
Created by potrace 1.14, written by Peter Selinger 2001-2017
</metadata>
<g transform="translate(0.000000,618.000000) scale(0.100000,-0.100000)"
fill="#000000" stroke="none">
<path d="M2489 5093 c-405 -194 -625 -545 -613 -978 1 -46 5 -105 9 -131 4
-27 8 -60 10 -74 1 -14 8 -45 15 -70 7 -25 14 -52 15 -60 17 -72 101 -238 166
-326 129 -175 337 -332 526 -398 l38 -13 5 -1195 5 -1196 25 -21 c24 -20 35
-20 443 -21 l419 0 27 28 27 27 -1 1186 0 1186 25 10 c14 6 49 20 78 32 221
91 431 282 549 501 26 48 70 154 77 185 2 6 8 30 15 55 32 111 40 191 36 350
-4 170 -8 195 -47 314 -35 107 -98 225 -145 274 -7 7 -13 17 -13 21 0 16 -149
157 -206 196 -33 22 -61 43 -64 46 -3 3 -43 26 -89 49 -70 36 -94 44 -138 43
-44 0 -60 -5 -90 -30 -35 -27 -64 -70 -71 -103 -2 -7 -3 -158 -3 -334 l0 -320
-30 -44 c-16 -23 -29 -47 -29 -52 0 -4 -3 -10 -7 -12 -5 -1 -20 -22 -36 -45
-27 -42 -28 -43 -85 -44 -185 -1 -454 0 -456 3 -2 2 -31 45 -65 96 l-62 94 -2
336 c-2 333 -2 337 -25 374 -50 80 -142 104 -233 61z"/>
</g>
</svg>
