<svg xmlns="http://www.w3.org/2000/svg" preserveAspectRatio="xMidYMid" style="background:#596886" viewBox="-74.83000488 12.78000488 649.66000977 124.43999023"><defs><filter id="a" width="300%" height="300%" x="-100%" y="-100%"><feFlood flood-color="#052b4a" result="flood"/><feComposite in="flood" in2="SourceAlpha" operator="in" result="shadow"/><feOffset dx="-4" dy="-4" in="SourceGraphic" result="offset-1"/><feOffset dx="4" dy="4" in="shadow" result="offset-2"/><feMerge><feMergeNode in="offset-2"/><feMergeNode in="offset-1"/></feMerge></filter></defs><g filter="url(#a)"><path fill="#ffd5af" d="M23.64177462 67.5100003q-2.18-1.66-2.18-5.21 0-3.56 2.34-5.41 2.33-1.86 6.37-1.86 2.56 0 8.64.9l4.35.64q2.17.25 4.45.25 2.27 0 3.8-.96 2.31 2.05 2.31 5 0 2.94-2.63 5.05-2.68 2.24-6.14 2.24-1.66 0-4.35-.45-3.14 9.86-3.14 16.71 0 6.85 3.46 10.43-1.6 2.88-3.97 4t-5.92 1.12q-3.55 0-5.76-1.95t-2.21-5.99q0-4.67 2.56-12.35 2.56-7.61 6.4-13.44-1.85-.19-3.77-.19-3.97 0-4.61 1.47Zm51.01 20.35q1.6 1.09 1.6 3.49 0 2.4-1.22 3.94-1.22 1.53-3.2 2.56-4.1 2.11-8.51 2.11-4.42 0-7.01-.96t-4.32-2.75q-3.39-3.39-3.39-9.6 0-9.67 5.25-15.55 5.63-6.34 15.42-6.34 6.08 0 9.09 2.56 2.24 1.92 2.24 5.06 0 11.26-19.46 11.26-.25 1.66-.25 3.07 0 2.95 1.31 4.07t3.74 1.12q2.43 0 5.03-1.12 2.59-1.12 3.68-2.92Zm-13.06-6.97q4.54 0 7.17-2.82 2.62-2.69 2.62-6.97 0-1.48-.54-2.28-.55-.8-1.63-.8-1.09 0-2.02.42-.93.42-1.89 1.82-2.37 3.2-3.71 10.63Zm29.7 17.98q-2.05 1.09-4.87 1.09-2.81 0-4.35-1.44-1.54-1.44-1.54-4.22 0-2.79 1.96-5.51 1.95-2.72 4.86-4.25 2.91-1.54 4.96-2.44l-4.03-9.28q-1.09-2.36-3.14-2.36l-.51.06h-.19q.38-2.24 3.01-3.97 2.62-1.79 5.63-1.79 4.86 0 7.1 4.86l.51 1.03 2.76 6.78q1.72-.77 2.46-2.21t.74-4.28q0-2.85-1.54-4.64 2.43-1.54 5.63-1.54 5.76 0 5.76 5.57 0 6.08-7.61 9.6l-3.84 1.79 3.45 8.9q1.03 2.68 2.88 3.84.77.51 1.67.57-1.92 3.14-6.08 4.55-1.28.38-3.01.38-1.73 0-3.71-1.18-1.99-1.19-2.69-3.04l-3.52-9.16q-3.59 1.6-3.59 7.43 0 2.69.84 4.86Zm27.96-6.59q0-1.73.9-6.08l3.39-17.28h-3.77l.25-1.92q7.68-2.3 15.11-7.94h3.07l-1.54 6.98h4.99l-.57 2.88h-4.93l-3.26 17.28q-.84 3.97-.84 5.31 0 3.07 2.69 3.71-.64 2.18-2.94 3.46-2.31 1.28-5.57 1.28-3.26 0-5.12-2.05-1.86-2.05-1.86-5.63Zm36.29 0q0-1.73.9-6.08l3.39-17.28h-3.78l.26-1.92q7.68-2.3 15.1-7.94h3.08l-1.54 6.98h4.99l-.57 2.88h-4.93l-3.27 17.28q-.83 3.97-.83 5.31 0 3.07 2.69 3.71-.64 2.18-2.94 3.46-2.31 1.28-5.57 1.28-3.27 0-5.12-2.05-1.86-2.05-1.86-5.63Zm35.78 7.68q-14.08 0-14.08-13.25 0-9.41 5.18-15.49 5.51-6.46 15.04-6.46 6.91 0 10.43 3.2 3.52 3.2 3.52 9.92 0 10.24-5.5 16.19-5.38 5.89-14.59 5.89Zm1.66-27.84q-.77 1.73-1.37 4.32-.61 2.59-1.38 6.69-.77 4.09-.77 9.15 0 1.66.55 2.75.54 1.09 2.01 1.09 1.47 0 2.4-.7.93-.71 1.63-2.37 1.28-2.95 2.31-8.42 1.02-5.47 1.12-7.84.09-2.37.09-4.13 0-1.76-.51-2.91-.51-1.15-1.95-1.15t-2.4.9q-.96.89-1.73 2.62Zm41.99 26.56h-7.04l7.68-42.24h13.76l9.98 29.06 5.31-29.06 7.11.06-7.81 42.18h-14.66l-9.21-27.97-5.12 27.97Zm58.94-2.69q-3.07 3.97-10.69 3.97-3.97 0-6.85-2.4-2.88-2.4-2.88-5.86 0-1.92.2-2.88l4.28-22.78 13-1.28-4.68 24.7q-.25 1.41-.25 2.24 0 3.72 2.24 3.72 2.49 0 4.29-3.4.57-1.08.83-2.49l4.54-23.49 12.61-1.28-4.74 24.96q-.19.96-.19 1.98 0 1.03.58 2.15.57 1.12 2.43 1.37-.38 1.54-1.73 2.56-2.81 2.18-5.85 2.18-3.04 0-4.84-1.09-1.79-1.09-2.3-2.88Zm66.18 3.97q-7.75 0-7.75-6.02 0-2.62 1.12-7.71t1.51-7.13q.89-4.68.89-6.15 0-3.26-2.43-3.26-1.6 0-3.14 2.21-1.53 2.2-2.24 6.62l-3.96 20.16-12.48 1.28 3.45-17.41q.58-2.88 1.09-6.14.51-3.27.51-3.78 0-2.94-2.17-2.94-1.48 0-3.08 2.17-1.6 2.18-2.49 6.66l-3.91 20.16-12.6 1.28 6.72-33.92 10.43-1.28-1.09 6.46q1.66-3.45 4.74-4.96 3.07-1.5 7.87-1.5 2.75 0 4.54 1.34 1.79 1.35 2.37 3.52 1.09-2.24 3.87-3.55 2.79-1.31 6.21-1.31t5.12.74q1.7.73 2.72 1.95 1.73 2.24 1.73 6.33 0 4.04-1.73 12.42-.9 4.1-.9 5.6t.87 2.4q.86.9 2.14 1.02-.64 2.18-2.85 3.46-2.2 1.28-5.08 1.28Zm12.03-4.35 7.93-41.73 13-1.28-1.99 9.79q-.7 3.01-1.6 5.12 1.41-1.79 4.48-2.49.9-.26 1.99-.26 5.95 0 9.21 3.62 3.27 3.61 3.27 10.59 0 9.09-5.19 14.78-5.57 6.21-15.68 6.21-6.97 0-12.22-2.3-1.86-.84-3.2-2.05Zm16.25-19.33-3.39 18.75q1.35 1.15 3.01 1.15 1.66 0 2.62-.64.96-.64 1.67-1.92 1.92-3.45 3.45-14.01.45-3.01.45-6.02t-.67-3.97q-.67-.96-1.95-.96-3.91 0-5.19 7.62Zm49.8 11.58q1.6 1.09 1.6 3.49 0 2.4-1.22 3.94-1.22 1.53-3.2 2.56-4.1 2.11-8.51 2.11-4.42 0-7.01-.96t-4.32-2.75q-3.39-3.39-3.39-9.6 0-9.67 5.25-15.55 5.63-6.34 15.42-6.34 6.08 0 9.09 2.56 2.24 1.92 2.24 5.06 0 11.26-19.46 11.26-.25 1.66-.25 3.07 0 2.95 1.31 4.07t3.74 1.12q2.43 0 5.03-1.12 2.59-1.12 3.68-2.92Zm-13.06-6.97q4.54 0 7.17-2.82 2.62-2.69 2.62-6.97 0-1.48-.54-2.28-.55-.8-1.63-.8-1.09 0-2.02.42-.93.42-1.89 1.82-2.37 3.2-3.71 10.63Zm41.22-.19q2.3-4.1 2.3-8.26 0-2.75-1.98-2.75-1.54 0-3.14 2.62-1.66 2.63-2.18 6.02l-3.32 20.35-13.25 1.28 6.53-33.92 10.56-1.28-1.16 6.46q3.14-6.46 10.18-6.46 3.71 0 5.73 1.92 2.01 1.92 2.01 5.86 0 3.93-2.59 6.43-2.59 2.49-7.01 2.49-1.92 0-2.68-.76Z"/></g></svg>